<svg xmlns="http://www.w3.org/2000/svg" xmlns:xlink="http://www.w3.org/1999/xlink" height="64" width="268">
    <defs>
        <linearGradient id="r">
            <stop offset="0" stop-color="#fff"/>
            <stop offset="1" stop-color="#ffc27d"/>
        </linearGradient>
        <linearGradient id="q">
            <stop offset="0" stop-color="#fff"/>
            <stop offset="1" stop-color="#8cd5ff"/>
        </linearGradient>
        <linearGradient id="i">
            <stop offset="0" stop-color="#cd9ef7"/>
            <stop offset="1" stop-color="#a56de2"/>
        </linearGradient>
        <linearGradient id="o">
            <stop offset="0" stop-color="#ffa154"/>
            <stop offset="1" stop-color="#f37329"/>
        </linearGradient>
        <linearGradient id="h">
            <stop offset="0" stop-color="#fff"/>
            <stop offset="1" stop-color="#fff" stop-opacity="0"/>
        </linearGradient>
        <linearGradient gradientTransform="matrix(2.36328 0 0 2.36328 -138.572 -33.857)" gradientUnits="userSpaceOnUse" xlink:href="#a" id="B" y2="40.496" x2="71.204" y1="15.369" x1="71.204"/>
        <linearGradient id="a">
            <stop offset="0" stop-color="#fff"/>
            <stop offset=".424" stop-color="#fff" stop-opacity=".235"/>
            <stop offset=".821" stop-color="#fff" stop-opacity=".157"/>
            <stop offset="1" stop-color="#fff" stop-opacity=".392"/>
        </linearGradient>
        <radialGradient gradientTransform="matrix(.38235 0 0 .11153 -5.925 36.333)" gradientUnits="userSpaceOnUse" xlink:href="#b" id="y" fy="185.297" fx="99.189" r="62.769" cy="185.297" cx="99.189"/>
        <linearGradient id="b">
            <stop offset="0"/>
            <stop offset="1" stop-opacity="0"/>
        </linearGradient>
        <radialGradient gradientTransform="matrix(.2549 0 0 .07966 6.716 44.239)" gradientUnits="userSpaceOnUse" xlink:href="#b" id="z" fy="185.297" fx="99.189" r="62.769" cy="185.297" cx="99.189"/>
        <linearGradient id="c">
            <stop offset="0" stop-color="#fff" stop-opacity="0"/>
            <stop offset=".292" stop-color="#fff" stop-opacity=".851"/>
            <stop offset=".457" stop-color="#fff" stop-opacity=".127"/>
            <stop offset=".725" stop-color="#fff" stop-opacity=".273"/>
            <stop offset=".84" stop-color="#fff"/>
            <stop offset="1" stop-color="#fff" stop-opacity="0"/>
        </linearGradient>
        <linearGradient id="d">
            <stop offset="0" stop-color="#fff" stop-opacity="0"/>
            <stop offset=".143" stop-color="#fff" stop-opacity=".851"/>
            <stop offset=".346" stop-color="#fff" stop-opacity=".127"/>
            <stop offset=".436" stop-color="#fff"/>
            <stop offset=".581" stop-color="#fff" stop-opacity=".205"/>
            <stop offset=".725" stop-color="#fff" stop-opacity=".273"/>
            <stop offset=".84" stop-color="#fff"/>
            <stop offset="1" stop-color="#fff" stop-opacity="0"/>
        </linearGradient>
        <linearGradient id="e">
            <stop offset="0" stop-color="#fff" stop-opacity="0"/>
            <stop offset=".168" stop-color="#fff" stop-opacity=".851"/>
            <stop offset=".457" stop-color="#fff" stop-opacity=".127"/>
            <stop offset=".608" stop-color="#fff" stop-opacity=".273"/>
            <stop offset=".693" stop-color="#fff"/>
            <stop offset="1" stop-color="#fff" stop-opacity="0"/>
        </linearGradient>
        <linearGradient id="f">
            <stop offset="0" stop-color="#fff" stop-opacity="0"/>
            <stop offset=".143" stop-color="#fff" stop-opacity=".851"/>
            <stop offset=".346" stop-color="#fff" stop-opacity=".127"/>
            <stop offset=".645" stop-color="#fff" stop-opacity=".273"/>
            <stop offset=".728" stop-color="#fff"/>
            <stop offset=".809" stop-color="#fff" stop-opacity=".229"/>
            <stop offset="1" stop-color="#fff" stop-opacity="0"/>
        </linearGradient>
        <linearGradient id="g">
            <stop offset="0" stop-color="#fff" stop-opacity="0"/>
            <stop offset=".448" stop-color="#fff" stop-opacity=".273"/>
            <stop offset=".55" stop-color="#fff"/>
            <stop offset=".721" stop-color="#fff" stop-opacity=".229"/>
            <stop offset="1" stop-color="#fff" stop-opacity="0"/>
        </linearGradient>
        <linearGradient gradientTransform="rotate(90 32 32)" gradientUnits="userSpaceOnUse" y2="32" x2="61.5" y1="32" x1="2.5" id="A" xlink:href="#i"/>
        <radialGradient cx="4.993" cy="43.5" r="2.5" fx="4.993" fy="43.5" id="s" xlink:href="#j" gradientUnits="userSpaceOnUse" gradientTransform="matrix(2.0305 0 0 1.4 27.788 -17.4)"/>
        <linearGradient id="j">
            <stop offset="0" stop-color="#181818"/>
            <stop offset="1" stop-color="#181818" stop-opacity="0"/>
        </linearGradient>
        <radialGradient cx="4.993" cy="43.5" r="2.5" fx="4.993" fy="43.5" id="t" xlink:href="#j" gradientUnits="userSpaceOnUse" gradientTransform="matrix(2.0305 0 0 1.4 -20.212 -104.4)"/>
        <linearGradient x1="25.058" y1="47.028" x2="25.058" y2="39.999" id="u" xlink:href="#k" gradientUnits="userSpaceOnUse" gradientTransform="matrix(.99524 0 0 1 .114 0)"/>
        <linearGradient id="k">
            <stop offset="0" stop-color="#181818" stop-opacity="0"/>
            <stop offset=".5" stop-color="#181818"/>
            <stop offset="1" stop-color="#181818" stop-opacity="0"/>
        </linearGradient>
        <linearGradient xlink:href="#l" id="v" x1="31.585" y1="4.63" x2="31.585" y2="59.185" gradientUnits="userSpaceOnUse" gradientTransform="translate(68)"/>
        <linearGradient id="l">
            <stop offset="0" stop-color="#9bdb4d"/>
            <stop offset="1" stop-color="#68b723"/>
        </linearGradient>
        <linearGradient x1="24" y1="5" x2="24" y2="43" id="w" xlink:href="#m" gradientUnits="userSpaceOnUse" gradientTransform="matrix(1.43243 0 0 1.43628 65.622 -2.47)"/>
        <linearGradient id="m">
            <stop offset="0" stop-color="#fff"/>
            <stop offset=".063" stop-color="#fff" stop-opacity=".235"/>
            <stop offset=".951" stop-color="#fff" stop-opacity=".157"/>
            <stop offset="1" stop-color="#fff" stop-opacity=".392"/>
        </linearGradient>
        <linearGradient xlink:href="#n" id="x" x1="32" y1="4" x2="32" y2="185" gradientUnits="userSpaceOnUse" gradientTransform="translate(0 -1)"/>
        <linearGradient id="n">
            <stop offset="0" stop-color="#fff"/>
            <stop offset="1" stop-color="#d1ff82"/>
        </linearGradient>
        <linearGradient gradientTransform="matrix(.1139 0 0 .02059 -9.169 48.451)" gradientUnits="userSpaceOnUse" xlink:href="#k" id="J" y2="609.505" x2="302.857" y1="366.648" x1="302.857"/>
        <radialGradient gradientTransform="matrix(-.03213 0 0 .02059 23.863 48.451)" gradientUnits="userSpaceOnUse" xlink:href="#j" id="K" fy="486.648" fx="605.714" r="117.143" cy="486.648" cx="605.714"/>
        <radialGradient gradientTransform="matrix(.03213 0 0 .02059 40.137 48.451)" gradientUnits="userSpaceOnUse" xlink:href="#j" id="L" fy="486.648" fx="605.714" r="117.143" cy="486.648" cx="605.714"/>
        <linearGradient xlink:href="#o" id="M" x1="32" y1="11.5" x2="32" y2="58.5" gradientUnits="userSpaceOnUse"/>
        <linearGradient x1="24" y1="13.507" x2="24" y2="45.534" id="N" xlink:href="#m" gradientUnits="userSpaceOnUse" gradientTransform="matrix(1.43243 0 0 1.43401 -7.378 -7.368)"/>
        <radialGradient r="2.5" fy="43.5" fx="4.996" cy="43.5" cx="4.996" gradientTransform="matrix(3.20605 0 0 1 33.981 1004.362)" gradientUnits="userSpaceOnUse" id="D" xlink:href="#j"/>
        <radialGradient r="2.5" fy="43.5" fx="4.993" cy="43.5" cx="4.993" gradientTransform="matrix(3.16387 0 0 1 -26.703 -1091.362)" gradientUnits="userSpaceOnUse" id="E" xlink:href="#j"/>
        <linearGradient y2="39.999" x2="25.058" y1="47.028" x1="25.058" gradientTransform="matrix(1.39286 0 0 .71429 -3.021 1016.79)" gradientUnits="userSpaceOnUse" id="F" xlink:href="#k"/>
        <linearGradient gradientTransform="translate(0 -988.362)" gradientUnits="userSpaceOnUse" y2="1047.862" x2="33" y1="988.862" x1="33" id="G" xlink:href="#p"/>
        <linearGradient id="p">
            <stop offset="0" stop-color="#64baff"/>
            <stop offset="1" stop-color="#3689e6"/>
        </linearGradient>
        <linearGradient x1="38.66" y1="5.848" x2="38.66" y2="46.23" id="H" xlink:href="#m" gradientUnits="userSpaceOnUse" gradientTransform="matrix(1.43243 0 0 1.43628 -7.378 -7.4)"/>
        <linearGradient xlink:href="#n" id="C" gradientUnits="userSpaceOnUse" gradientTransform="translate(0 -1)" x1="32" y1="4" x2="32" y2="185"/>
        <linearGradient xlink:href="#q" id="I" gradientUnits="userSpaceOnUse" gradientTransform="translate(0 -1)" x1="32" y1="4" x2="32" y2="185"/>
        <linearGradient xlink:href="#r" id="O" gradientUnits="userSpaceOnUse" gradientTransform="translate(0 -1)" x1="32" y1="4" x2="32" y2="185"/>
    </defs>
    <g opacity=".6">
        <path fill="url(#s)" d="M37.933 40H43v7h-5.067z" transform="matrix(1.57895 0 0 .71429 62.105 27.929)"/>
        <path transform="matrix(-1.57895 0 0 -.71429 62.105 27.929)" fill="url(#t)" d="M-10.067-47H-5v7h-5.067z"/>
        <path fill="url(#u)" d="M10.067 40h27.867v7H10.067z" transform="matrix(1.57895 0 0 .71429 62.105 27.929)"/>
    </g>
    <rect width="55" height="55" rx="3" ry="3" x="72.5" y="4.5" style="marker:none" color="#000" overflow="visible" fill="url(#v)"/>
    <rect width="53" height="53.142" rx="2" ry="2" x="73.5" y="5.429" opacity=".5" fill="none" stroke="url(#w)" stroke-linecap="round" stroke-linejoin="round"/>
    <rect width="55" height="55" rx="3" ry="3" x="72.5" y="4.5" style="marker:none" color="#000" overflow="visible" opacity=".5" fill="none" stroke="#206b00" stroke-linecap="round" stroke-linejoin="round"/>
    <g color="#000" font-weight="400" font-family="sans-serif" white-space="normal">
        <path style="line-height:normal;font-variant-ligatures:normal;font-variant-position:normal;font-variant-caps:normal;font-variant-numeric:normal;font-variant-alternates:normal;font-feature-settings:normal;text-indent:0;text-align:start;text-decoration-line:none;text-decoration-style:solid;text-decoration-color:#000;text-transform:none;text-orientation:mixed;shape-padding:0;isolation:auto;mix-blend-mode:normal;marker:none" d="M100 16c-.254 0-.42.11-.553.215a2.197 2.197 0 0 0-.354.368 8.453 8.453 0 0 0-.698 1.078c-.49.863-1.038 1.994-1.578 3.141-.54 1.148-1.072 2.311-1.517 3.219-.223.454-.424.845-.588 1.13-.164.283-.348.478-.288.432.06-.045-.165.073-.47.148-.306.076-.72.156-1.2.238-.957.164-2.174.337-3.38.523-1.206.185-2.4.383-3.337.606-.468.112-.87.228-1.198.367-.329.139-.657.247-.799.706-.141.459.06.726.246 1.037.186.312.444.653.76 1.032.63.757 1.485 1.653 2.356 2.548.872.894 1.762 1.785 2.445 2.51.342.362.634.684.84.935.207.252.325.485.307.427-.018-.058.016.21-.01.542-.027.332-.081.772-.155 1.277-.148 1.01-.368 2.28-.573 3.542-.205 1.262-.395 2.514-.482 3.514-.043.5-.061.936-.037 1.3.012.183.032.347.079.509.047.161.116.34.313.491.197.15.397.168.567.165.17-.003.33-.034.502-.08.344-.09.734-.244 1.175-.443.882-.397 1.958-.974 3.037-1.569 1.08-.595 2.16-1.208 3.027-1.666.433-.23.814-.42 1.104-.548.29-.128.544-.171.459-.171-.086 0 .17.043.46.17.29.129.672.32 1.105.549.867.458 1.947 1.071 3.026 1.666 1.08.595 2.155 1.172 3.037 1.569.441.199.832.353 1.176.444.172.045.333.076.502.079.17.003.37-.014.567-.165.197-.15.265-.33.313-.491.047-.162.067-.326.079-.509a8.84 8.84 0 0 0-.038-1.3c-.086-1-.276-2.252-.481-3.514-.205-1.262-.426-2.532-.573-3.542-.074-.505-.13-.945-.157-1.277-.026-.332.01-.6-.008-.542-.018.058.1-.175.306-.427.207-.251.499-.573.84-.935.684-.725 1.571-1.616 2.443-2.51.872-.895 1.727-1.791 2.357-2.548.316-.379.576-.72.761-1.032.186-.311.386-.578.244-1.037-.142-.459-.468-.567-.796-.706a7.81 7.81 0 0 0-1.2-.367c-.937-.223-2.13-.421-3.336-.606-1.206-.186-2.423-.36-3.38-.523a18.119 18.119 0 0 1-1.199-.238c-.305-.075-.533-.193-.473-.148.06.046-.121-.149-.285-.433a20.325 20.325 0 0 1-.588-1.13c-.445-.907-.977-2.07-1.517-3.218-.54-1.147-1.088-2.278-1.578-3.141a8.453 8.453 0 0 0-.698-1.078 2.208 2.208 0 0 0-.357-.368c-.133-.105-.299-.215-.552-.215z" overflow="visible" opacity=".15" fill="#206b00" stroke="#206b00" stroke-width="2" stroke-linejoin="round"/>
        <path d="M100 16c-.253 0-.42.11-.552.215a2.197 2.197 0 0 0-.354.368 8.454 8.454 0 0 0-.698 1.078c-.49.863-1.037 1.994-1.577 3.141-.54 1.148-1.072 2.311-1.517 3.219-.223.454-.424.845-.588 1.13-.163.283-.347.478-.287.432.06-.045-.165.073-.471.148a18.1 18.1 0 0 1-1.198.238c-.957.164-2.173.337-3.38.523-1.205.185-2.399.383-3.335.606-.467.112-.87.228-1.197.367-.329.139-.657.247-.798.706-.142.459.06.726.245 1.037.186.312.444.653.759 1.032.63.757 1.485 1.653 2.356 2.548.872.894 1.76 1.785 2.444 2.51.341.362.633.684.84.935.206.252.324.485.306.427-.018-.058.016.21-.01.542-.027.332-.081.772-.155 1.277-.148 1.01-.368 2.28-.573 3.542-.205 1.262-.394 2.514-.481 3.514-.043.5-.062.936-.038 1.3.012.183.032.347.08.509.047.161.115.34.312.491.197.15.397.168.567.165.17-.003.33-.034.502-.08a7.82 7.82 0 0 0 1.175-.443c.881-.397 1.956-.974 3.035-1.569 1.08-.595 2.159-1.208 3.025-1.666.434-.23.815-.42 1.104-.548.29-.128.544-.171.459-.171-.086 0 .17.043.46.17.29.129.671.32 1.104.549.867.458 1.947 1.071 3.025 1.666 1.08.595 2.154 1.172 3.036 1.569.44.199.83.353 1.175.444.172.045.333.076.502.079.17.003.37-.014.567-.165.197-.15.265-.33.312-.491.047-.162.067-.326.08-.509.023-.364.005-.8-.038-1.3-.087-1-.277-2.252-.481-3.514-.205-1.262-.426-2.532-.573-3.542-.074-.505-.13-.945-.157-1.277-.026-.332.01-.6-.008-.542-.018.058.1-.175.306-.427.207-.251.498-.573.84-.935.683-.725 1.57-1.616 2.442-2.51.871-.895 1.725-1.791 2.356-2.548.315-.379.575-.72.76-1.032.186-.311.386-.578.244-1.037-.142-.459-.468-.567-.796-.706a7.805 7.805 0 0 0-1.2-.367c-.936-.223-2.128-.421-3.333-.606-1.206-.186-2.422-.36-3.38-.523a18.104 18.104 0 0 1-1.197-.238c-.306-.075-.533-.193-.473-.148.06.046-.122-.149-.286-.433a20.329 20.329 0 0 1-.587-1.13c-.445-.907-.977-2.07-1.517-3.218-.54-1.147-1.087-2.278-1.577-3.141a8.454 8.454 0 0 0-.698-1.078 2.207 2.207 0 0 0-.356-.368c-.133-.105-.299-.215-.552-.215z" style="line-height:normal;font-variant-ligatures:normal;font-variant-position:normal;font-variant-caps:normal;font-variant-numeric:normal;font-variant-alternates:normal;font-feature-settings:normal;text-indent:0;text-align:start;text-decoration-line:none;text-decoration-style:solid;text-decoration-color:#000;text-transform:none;text-orientation:mixed;shape-padding:0;isolation:auto;mix-blend-mode:normal;marker:none" overflow="visible" opacity=".3" fill="#206b00"/>
        <path style="line-height:normal;font-variant-ligatures:normal;font-variant-position:normal;font-variant-caps:normal;font-variant-numeric:normal;font-variant-alternates:normal;font-feature-settings:normal;text-indent:0;text-align:start;text-decoration-line:none;text-decoration-style:solid;text-decoration-color:#000;text-transform:none;text-orientation:mixed;shape-padding:0;isolation:auto;mix-blend-mode:normal;marker:none" d="M32 15c-.253 0-.42.11-.552.215a2.197 2.197 0 0 0-.354.369 8.454 8.454 0 0 0-.698 1.077c-.49.863-1.037 1.994-1.577 3.141-.54 1.148-1.072 2.311-1.517 3.219-.223.454-.424.845-.588 1.13-.163.283-.347.478-.287.432.06-.045-.165.073-.47.148a18.1 18.1 0 0 1-1.199.238c-.957.164-2.173.338-3.38.523-1.205.185-2.399.383-3.335.606-.467.112-.87.228-1.197.367-.329.139-.657.247-.798.706-.142.459.06.726.245 1.037.186.312.444.653.759 1.032.63.757 1.485 1.653 2.356 2.548.872.894 1.76 1.785 2.444 2.51.341.362.633.684.84.935.206.252.324.485.306.427-.018-.058.016.21-.01.542-.027.332-.081.772-.155 1.277-.148 1.01-.368 2.28-.573 3.542-.205 1.262-.394 2.514-.481 3.514-.043.5-.062.936-.038 1.3.012.183.032.347.08.509.047.161.115.34.312.491.197.15.397.168.567.165.17-.003.33-.034.502-.08a7.82 7.82 0 0 0 1.175-.443c.881-.397 1.956-.974 3.035-1.569 1.08-.595 2.159-1.208 3.025-1.666.434-.23.815-.42 1.104-.548.29-.128.544-.171.459-.171-.086 0 .17.043.46.17.29.129.671.32 1.104.549.867.458 1.947 1.071 3.025 1.666 1.08.595 2.154 1.172 3.036 1.569.44.199.83.353 1.175.444.172.045.333.076.502.079.17.003.37-.014.567-.165.197-.15.265-.33.312-.491.047-.162.067-.326.08-.509.023-.364.005-.8-.038-1.3-.087-1-.277-2.252-.481-3.514-.205-1.262-.426-2.532-.573-3.542-.074-.505-.13-.945-.157-1.277-.026-.332.01-.6-.008-.542-.018.058.1-.175.306-.427.207-.251.498-.573.84-.935.683-.725 1.57-1.616 2.442-2.51.871-.895 1.725-1.791 2.356-2.548.315-.379.575-.72.76-1.032.186-.311.386-.578.244-1.037-.142-.459-.468-.567-.796-.706a7.805 7.805 0 0 0-1.2-.367c-.936-.223-2.128-.421-3.333-.606-1.206-.185-2.422-.36-3.38-.523a18.104 18.104 0 0 1-1.197-.238c-.306-.075-.533-.193-.473-.148.06.046-.122-.149-.286-.433a20.329 20.329 0 0 1-.587-1.13c-.445-.907-.977-2.07-1.517-3.218-.54-1.147-1.087-2.278-1.577-3.141a8.454 8.454 0 0 0-.698-1.078 2.207 2.207 0 0 0-.356-.368C32.419 15.11 32.253 15 32 15z" overflow="visible" fill="url(#x)" transform="translate(68)"/>
    </g>
    <g>
        <path d="M56 57a24 6.999 0 1 1-48 0 24 6.999 0 1 1 48 0z" opacity=".2" fill="url(#y)"/>
        <path d="M48 59a16 4.999 0 1 1-32 0 16 4.999 0 1 1 32 0z" opacity=".4" fill="url(#z)"/>
        <path style="marker:none" d="M61.5 32C61.5 15.723 48.277 2.5 32 2.5S2.5 15.723 2.5 32 15.723 61.5 32 61.5 61.5 48.277 61.5 32z" color="#000" overflow="visible" fill="url(#A)"/>
        <path style="marker:none" d="M32 2.5C15.723 2.5 2.5 15.723 2.5 32S15.723 61.5 32 61.5 61.5 48.277 61.5 32 48.277 2.5 32 2.5z" color="#000" overflow="visible" opacity=".5" fill="none" stroke="#452981"/>
        <path style="marker:none" d="M60.5 32c0 15.74-12.76 28.5-28.5 28.5S3.5 47.74 3.5 32 16.26 3.5 32 3.5 60.5 16.26 60.5 32z" color="#000" overflow="visible" opacity=".5" fill="none" stroke="url(#B)" stroke-linecap="round" stroke-linejoin="round"/>
        <g color="#000" font-weight="400" font-family="sans-serif" white-space="normal">
            <path style="line-height:normal;font-variant-ligatures:normal;font-variant-position:normal;font-variant-caps:normal;font-variant-numeric:normal;font-variant-alternates:normal;font-feature-settings:normal;text-indent:0;text-align:start;text-decoration-line:none;text-decoration-style:solid;text-decoration-color:#000;text-transform:none;text-orientation:mixed;shape-padding:0;isolation:auto;mix-blend-mode:normal;marker:none" d="M32 16c-.254 0-.42.11-.553.215a2.197 2.197 0 0 0-.354.368 8.453 8.453 0 0 0-.698 1.077c-.49.864-1.038 1.995-1.578 3.142-.54 1.148-1.072 2.311-1.517 3.219-.223.454-.424.845-.588 1.129-.164.284-.348.48-.288.433.06-.046-.165.073-.47.148-.307.076-.72.156-1.2.238-.957.164-2.174.337-3.38.523-1.206.185-2.4.382-3.337.606-.468.112-.87.227-1.198.367-.329.139-.657.247-.799.706-.141.458.06.726.246 1.037.186.312.444.653.76 1.032.63.757 1.484 1.653 2.356 2.547.872.895 1.762 1.786 2.445 2.51.342.363.634.685.84.936.207.252.325.485.307.427-.018-.058.016.21-.01.542-.027.332-.081.772-.155 1.277-.148 1.01-.368 2.28-.573 3.542-.205 1.262-.395 2.514-.482 3.514-.043.5-.061.936-.037 1.3.012.183.032.347.079.509.047.161.115.34.313.491.197.15.397.168.567.165.169-.003.33-.034.502-.08.344-.09.734-.244 1.175-.443.882-.397 1.958-.974 3.037-1.569 1.08-.595 2.16-1.208 3.027-1.666.433-.23.814-.42 1.104-.548.29-.128.544-.171.459-.171-.086 0 .17.043.46.17.29.129.672.32 1.105.549.867.458 1.947 1.071 3.026 1.666 1.08.595 2.155 1.172 3.037 1.569.441.199.832.353 1.176.444.172.045.332.076.502.079.17.003.37-.014.567-.165.197-.15.265-.33.313-.491.047-.162.067-.326.079-.509a8.84 8.84 0 0 0-.038-1.3c-.086-1-.276-2.252-.481-3.514-.205-1.262-.426-2.533-.573-3.542-.074-.505-.13-.945-.157-1.277-.026-.332.01-.6-.008-.542-.018.058.1-.175.306-.427.207-.251.499-.573.84-.935.684-.725 1.571-1.616 2.443-2.51.872-.895 1.727-1.791 2.357-2.548.316-.379.576-.72.761-1.032.186-.311.386-.579.244-1.037-.142-.459-.468-.567-.796-.706a7.81 7.81 0 0 0-1.2-.367c-.937-.224-2.13-.421-3.336-.606-1.206-.186-2.423-.36-3.38-.523a18.119 18.119 0 0 1-1.199-.238c-.305-.075-.533-.194-.473-.148.06.046-.121-.149-.285-.433a20.325 20.325 0 0 1-.588-1.13c-.445-.907-.977-2.07-1.517-3.218-.54-1.147-1.088-2.278-1.578-3.142a8.453 8.453 0 0 0-.699-1.077 2.208 2.208 0 0 0-.356-.368C32.42 16.11 32.253 16 32 16z" overflow="visible" opacity=".15" fill="#452981" stroke="#452981" stroke-width="2" stroke-linejoin="round"/>
            <path d="M32 16c-.253 0-.42.11-.552.215a2.197 2.197 0 0 0-.354.368 8.454 8.454 0 0 0-.698 1.077c-.49.864-1.038 1.995-1.577 3.142-.54 1.148-1.072 2.311-1.517 3.219-.223.454-.424.845-.588 1.129-.164.284-.347.48-.287.433.06-.046-.165.073-.471.148a18.1 18.1 0 0 1-1.198.238c-.957.164-2.174.337-3.38.523-1.205.185-2.399.382-3.335.606-.468.112-.87.227-1.197.367-.329.139-.657.247-.798.706-.142.458.06.726.245 1.037.186.312.443.653.759 1.032.63.757 1.485 1.653 2.356 2.547.872.895 1.76 1.786 2.444 2.51.341.363.633.685.84.936.206.252.324.485.306.427-.018-.058.016.21-.01.542-.027.332-.081.772-.155 1.277-.148 1.01-.368 2.28-.573 3.542-.205 1.262-.395 2.514-.481 3.514-.043.5-.062.936-.038 1.3.012.183.032.347.08.509.047.161.115.34.312.491.197.15.397.168.567.165.17-.003.33-.034.502-.08a7.82 7.82 0 0 0 1.175-.443c.881-.397 1.956-.974 3.035-1.569 1.079-.595 2.159-1.208 3.025-1.666.433-.23.815-.42 1.104-.548.29-.128.544-.171.459-.171-.086 0 .17.043.46.17.29.129.671.32 1.104.549.867.458 1.947 1.071 3.025 1.666 1.08.595 2.154 1.172 3.036 1.569.44.199.83.353 1.175.444.172.045.333.076.502.079.17.003.37-.014.567-.165.197-.15.265-.33.312-.491.047-.162.067-.326.08-.509.023-.364.005-.8-.038-1.3-.087-1-.277-2.252-.481-3.514-.205-1.262-.426-2.533-.573-3.542-.074-.505-.13-.945-.157-1.277-.026-.332.01-.6-.008-.542-.018.058.1-.175.306-.427.207-.251.498-.573.84-.935.683-.725 1.57-1.616 2.442-2.51.871-.895 1.725-1.791 2.356-2.548.315-.379.575-.72.76-1.032.186-.311.386-.579.244-1.037-.142-.459-.468-.567-.796-.706a7.805 7.805 0 0 0-1.2-.367c-.936-.224-2.128-.421-3.333-.606-1.206-.186-2.422-.36-3.38-.523a18.104 18.104 0 0 1-1.197-.238c-.306-.075-.533-.194-.473-.148.06.046-.122-.149-.286-.433a20.329 20.329 0 0 1-.587-1.13c-.445-.907-.977-2.07-1.517-3.218-.54-1.147-1.087-2.278-1.577-3.142a8.454 8.454 0 0 0-.698-1.077 2.207 2.207 0 0 0-.356-.368C32.419 16.11 32.253 16 32 16z" style="line-height:normal;font-variant-ligatures:normal;font-variant-position:normal;font-variant-caps:normal;font-variant-numeric:normal;font-variant-alternates:normal;font-feature-settings:normal;text-indent:0;text-align:start;text-decoration-line:none;text-decoration-style:solid;text-decoration-color:#000;text-transform:none;text-orientation:mixed;shape-padding:0;isolation:auto;mix-blend-mode:normal;marker:none" overflow="visible" opacity=".3" fill="#452981"/>
            <path style="line-height:normal;font-variant-ligatures:normal;font-variant-position:normal;font-variant-caps:normal;font-variant-numeric:normal;font-variant-alternates:normal;font-feature-settings:normal;text-indent:0;text-align:start;text-decoration-line:none;text-decoration-style:solid;text-decoration-color:#000;text-transform:none;text-orientation:mixed;shape-padding:0;isolation:auto;mix-blend-mode:normal;marker:none" d="M32 15c-.253 0-.42.11-.552.215a2.197 2.197 0 0 0-.354.369 8.454 8.454 0 0 0-.698 1.077c-.49.863-1.037 1.994-1.577 3.141-.54 1.148-1.072 2.311-1.517 3.219-.223.454-.424.845-.588 1.13-.163.283-.347.478-.287.432.06-.045-.165.073-.47.148a18.1 18.1 0 0 1-1.199.238c-.957.164-2.173.338-3.38.523-1.205.185-2.399.383-3.335.606-.467.112-.87.228-1.197.367-.329.139-.657.247-.798.706-.142.459.06.726.245 1.037.186.312.444.653.759 1.032.63.757 1.485 1.653 2.356 2.548.872.894 1.76 1.785 2.444 2.51.341.362.633.684.84.935.206.252.324.485.306.427-.018-.058.016.21-.01.542-.027.332-.081.772-.155 1.277-.148 1.01-.368 2.28-.573 3.542-.205 1.262-.394 2.514-.481 3.514-.043.5-.062.936-.038 1.3.012.183.032.347.08.509.047.161.115.34.312.491.197.15.397.168.567.165.17-.003.33-.034.502-.08a7.82 7.82 0 0 0 1.175-.443c.881-.397 1.956-.974 3.035-1.569 1.08-.595 2.159-1.208 3.025-1.666.434-.23.815-.42 1.104-.548.29-.128.544-.171.459-.171-.086 0 .17.043.46.17.29.129.671.32 1.104.549.867.458 1.947 1.071 3.025 1.666 1.08.595 2.154 1.172 3.036 1.569.44.199.83.353 1.175.444.172.045.333.076.502.079.17.003.37-.014.567-.165.197-.15.265-.33.312-.491.047-.162.067-.326.08-.509.023-.364.005-.8-.038-1.3-.087-1-.277-2.252-.481-3.514-.205-1.262-.426-2.532-.573-3.542-.074-.505-.13-.945-.157-1.277-.026-.332.01-.6-.008-.542-.018.058.1-.175.306-.427.207-.251.498-.573.84-.935.683-.725 1.57-1.616 2.442-2.51.871-.895 1.725-1.791 2.356-2.548.315-.379.575-.72.76-1.032.186-.311.386-.578.244-1.037-.142-.459-.468-.567-.796-.706a7.805 7.805 0 0 0-1.2-.367c-.936-.223-2.128-.421-3.333-.606-1.206-.185-2.422-.36-3.38-.523a18.104 18.104 0 0 1-1.197-.238c-.306-.075-.533-.193-.473-.148.06.046-.122-.149-.286-.433a20.329 20.329 0 0 1-.587-1.13c-.445-.907-.977-2.07-1.517-3.218-.54-1.147-1.087-2.278-1.577-3.141a8.454 8.454 0 0 0-.698-1.078 2.207 2.207 0 0 0-.356-.368C32.419 15.11 32.253 15 32 15z" overflow="visible" fill="url(#C)"/>
        </g>
    </g>
    <g>
        <g transform="translate(204)">
            <g opacity=".6">
                <path fill="url(#D)" d="M50 1045.362h8v5h-8z" transform="translate(3 -988.362)"/>
                <path transform="rotate(180 1.5 -494.181)" fill="url(#E)" d="M-11-1050.362h8v5h-8z"/>
                <path fill="url(#F)" d="M11 1045.362h39v5H11z" transform="translate(3 -988.362)"/>
            </g>
            <rect width="51" height="59" rx="3" ry="3" x="7.5" y=".5" fill="url(#G)"/>
            <rect y=".5" x="7.5" ry="3" rx="3" height="59" width="51" opacity=".5" fill="none" stroke="#002e99"/>
            <rect y="1.5" x="8.5" ry="2" rx="2" height="57" width="49" opacity=".5" fill="none" stroke="url(#H)" stroke-linecap="round" stroke-linejoin="round"/>
        </g>
        <g color="#000" font-weight="400" font-family="sans-serif" white-space="normal">
            <path style="line-height:normal;font-variant-ligatures:normal;font-variant-position:normal;font-variant-caps:normal;font-variant-numeric:normal;font-variant-alternates:normal;font-feature-settings:normal;text-indent:0;text-align:start;text-decoration-line:none;text-decoration-style:solid;text-decoration-color:#000;text-transform:none;text-orientation:mixed;shape-padding:0;isolation:auto;mix-blend-mode:normal;marker:none" d="M237 14c-.254 0-.42.11-.553.215a2.197 2.197 0 0 0-.354.368 8.453 8.453 0 0 0-.698 1.077c-.49.864-1.038 1.995-1.578 3.142-.54 1.148-1.072 2.311-1.517 3.219-.223.454-.424.845-.588 1.129-.164.284-.348.48-.288.433.06-.046-.165.073-.47.148-.306.076-.72.156-1.2.238-.957.164-2.174.337-3.38.523-1.206.185-2.4.382-3.337.606-.468.112-.87.227-1.198.367-.329.139-.657.247-.798.706-.142.458.06.726.245 1.037.186.312.444.653.76 1.031.63.758 1.485 1.654 2.356 2.548.872.895 1.762 1.786 2.445 2.51.342.363.634.685.84.936.207.251.325.485.307.427-.018-.058.016.21-.01.542-.027.332-.081.772-.155 1.277-.148 1.01-.368 2.28-.573 3.542-.205 1.262-.395 2.514-.482 3.514-.043.5-.061.936-.037 1.3.012.182.032.347.079.509.047.161.116.34.313.491.197.15.397.168.567.165.17-.003.33-.034.502-.08.344-.09.734-.245 1.175-.443.882-.397 1.958-.974 3.037-1.569 1.08-.595 2.16-1.208 3.027-1.667.433-.229.814-.42 1.104-.547.29-.128.544-.171.459-.171-.086 0 .17.043.46.17.29.128.672.319 1.105.548.867.46 1.947 1.072 3.026 1.667 1.08.595 2.155 1.172 3.037 1.569.441.198.832.353 1.176.444.172.045.333.076.502.079.17.003.37-.014.567-.165.197-.15.265-.33.313-.491.047-.162.067-.327.079-.509a8.84 8.84 0 0 0-.038-1.3c-.086-1-.276-2.252-.481-3.514-.205-1.262-.426-2.533-.573-3.542-.074-.505-.13-.945-.157-1.277-.026-.332.01-.6-.008-.542-.018.058.1-.176.306-.427.207-.251.499-.573.84-.935.684-.725 1.571-1.616 2.443-2.51.872-.895 1.727-1.791 2.357-2.549.316-.378.576-.72.761-1.03.186-.312.386-.58.244-1.038-.142-.459-.468-.567-.796-.706a7.81 7.81 0 0 0-1.2-.367c-.937-.224-2.13-.421-3.335-.606-1.207-.186-2.424-.36-3.381-.523a18.119 18.119 0 0 1-1.199-.238c-.305-.075-.533-.194-.473-.148.06.046-.121-.149-.285-.433a20.325 20.325 0 0 1-.588-1.13c-.445-.907-.977-2.07-1.517-3.218-.54-1.147-1.088-2.278-1.578-3.142a8.453 8.453 0 0 0-.698-1.077 2.208 2.208 0 0 0-.357-.368c-.133-.105-.299-.215-.552-.215z" overflow="visible" opacity=".15" fill="#002e99" stroke="#002e99" stroke-width="2" stroke-linejoin="round"/>
            <path d="M237 14c-.253 0-.42.11-.552.215a2.197 2.197 0 0 0-.354.368 8.454 8.454 0 0 0-.698 1.077c-.49.864-1.037 1.995-1.577 3.142-.54 1.148-1.072 2.311-1.517 3.219-.223.454-.424.845-.588 1.129-.163.284-.347.48-.287.433.06-.046-.165.073-.47.148a18.1 18.1 0 0 1-1.199.238c-.957.164-2.173.337-3.38.523-1.205.185-2.399.382-3.334.606-.468.112-.87.227-1.198.367-.329.139-.657.247-.798.706-.142.458.06.726.245 1.037.186.312.444.653.759 1.031.63.758 1.485 1.654 2.356 2.548.872.895 1.76 1.786 2.444 2.51.342.363.633.685.84.936.206.251.324.485.306.427-.018-.058.016.21-.01.542-.027.332-.081.772-.155 1.277-.148 1.01-.368 2.28-.573 3.542-.205 1.262-.394 2.514-.481 3.514-.043.5-.062.936-.038 1.3.012.182.032.347.08.509.047.161.115.34.312.491.197.15.397.168.567.165.17-.003.33-.034.502-.08a7.82 7.82 0 0 0 1.175-.443c.881-.397 1.957-.974 3.035-1.569 1.08-.595 2.159-1.208 3.025-1.667.434-.229.815-.42 1.105-.547.29-.128.543-.171.458-.171-.086 0 .17.043.46.17.29.128.671.319 1.104.548.867.46 1.947 1.072 3.025 1.667 1.08.595 2.154 1.172 3.036 1.569.44.198.83.353 1.175.444.172.045.333.076.502.079.17.003.37-.014.567-.165.197-.15.265-.33.312-.491.047-.162.067-.327.08-.509.023-.364.005-.8-.038-1.3-.087-1-.277-2.252-.481-3.514-.205-1.262-.426-2.533-.573-3.542-.074-.505-.13-.945-.157-1.277-.026-.332.01-.6-.008-.542-.018.058.1-.176.306-.427.207-.251.498-.573.84-.935.683-.725 1.57-1.616 2.442-2.51.871-.895 1.725-1.791 2.356-2.549.315-.378.575-.72.76-1.03.186-.312.386-.58.244-1.038-.142-.459-.467-.567-.796-.706a7.805 7.805 0 0 0-1.2-.367c-.936-.224-2.128-.421-3.333-.606-1.206-.186-2.422-.36-3.38-.523a18.104 18.104 0 0 1-1.197-.238c-.306-.075-.533-.194-.473-.148.06.046-.122-.149-.286-.433a20.329 20.329 0 0 1-.587-1.13c-.445-.907-.977-2.07-1.517-3.218-.54-1.147-1.087-2.278-1.577-3.142a8.454 8.454 0 0 0-.698-1.077 2.207 2.207 0 0 0-.356-.368c-.133-.105-.299-.215-.552-.215z" style="line-height:normal;font-variant-ligatures:normal;font-variant-position:normal;font-variant-caps:normal;font-variant-numeric:normal;font-variant-alternates:normal;font-feature-settings:normal;text-indent:0;text-align:start;text-decoration-line:none;text-decoration-style:solid;text-decoration-color:#000;text-transform:none;text-orientation:mixed;shape-padding:0;isolation:auto;mix-blend-mode:normal;marker:none" overflow="visible" opacity=".3" fill="#002e99"/>
            <path style="line-height:normal;font-variant-ligatures:normal;font-variant-position:normal;font-variant-caps:normal;font-variant-numeric:normal;font-variant-alternates:normal;font-feature-settings:normal;text-indent:0;text-align:start;text-decoration-line:none;text-decoration-style:solid;text-decoration-color:#000;text-transform:none;text-orientation:mixed;shape-padding:0;isolation:auto;mix-blend-mode:normal;marker:none" d="M32 15c-.253 0-.42.11-.552.215a2.197 2.197 0 0 0-.354.369 8.454 8.454 0 0 0-.698 1.077c-.49.863-1.037 1.994-1.577 3.141-.54 1.148-1.072 2.311-1.517 3.219-.223.454-.424.845-.588 1.13-.163.283-.347.478-.287.432.06-.045-.165.073-.47.148a18.1 18.1 0 0 1-1.199.238c-.957.164-2.173.338-3.38.523-1.205.185-2.399.383-3.335.606-.467.112-.87.228-1.197.367-.329.139-.657.247-.798.706-.142.459.06.726.245 1.037.186.312.444.653.759 1.032.63.757 1.485 1.653 2.356 2.548.872.894 1.76 1.785 2.444 2.51.341.362.633.684.84.935.206.252.324.485.306.427-.018-.058.016.21-.01.542-.027.332-.081.772-.155 1.277-.148 1.01-.368 2.28-.573 3.542-.205 1.262-.394 2.514-.481 3.514-.043.5-.062.936-.038 1.3.012.183.032.347.08.509.047.161.115.34.312.491.197.15.397.168.567.165.17-.003.33-.034.502-.08a7.82 7.82 0 0 0 1.175-.443c.881-.397 1.956-.974 3.035-1.569 1.08-.595 2.159-1.208 3.025-1.666.434-.23.815-.42 1.104-.548.29-.128.544-.171.459-.171-.086 0 .17.043.46.17.29.129.671.32 1.104.549.867.458 1.947 1.071 3.025 1.666 1.08.595 2.154 1.172 3.036 1.569.44.199.83.353 1.175.444.172.045.333.076.502.079.17.003.37-.014.567-.165.197-.15.265-.33.312-.491.047-.162.067-.326.08-.509.023-.364.005-.8-.038-1.3-.087-1-.277-2.252-.481-3.514-.205-1.262-.426-2.532-.573-3.542-.074-.505-.13-.945-.157-1.277-.026-.332.01-.6-.008-.542-.018.058.1-.175.306-.427.207-.251.498-.573.84-.935.683-.725 1.57-1.616 2.442-2.51.871-.895 1.725-1.791 2.356-2.548.315-.379.575-.72.76-1.032.186-.311.386-.578.244-1.037-.142-.459-.468-.567-.796-.706a7.805 7.805 0 0 0-1.2-.367c-.936-.223-2.128-.421-3.333-.606-1.206-.185-2.422-.36-3.38-.523a18.104 18.104 0 0 1-1.197-.238c-.306-.075-.533-.193-.473-.148.06.046-.122-.149-.286-.433a20.329 20.329 0 0 1-.587-1.13c-.445-.907-.977-2.07-1.517-3.218-.54-1.147-1.087-2.278-1.577-3.141a8.454 8.454 0 0 0-.698-1.078 2.207 2.207 0 0 0-.356-.368C32.419 15.11 32.253 15 32 15z" overflow="visible" fill="url(#I)" transform="translate(205 -2)"/>
        </g>
    </g>
    <g>
        <g transform="translate(136)">
            <g opacity=".6">
                <path style="marker:none" overflow="visible" opacity=".6" fill="url(#J)" d="M4.5 56h55v5h-55z"/>
                <path style="marker:none" d="M4.5 56v5c-1.655.01-4-1.12-4-2.5s1.846-2.5 4-2.5z" overflow="visible" opacity=".6" fill="url(#K)"/>
                <path style="marker:none" d="M59.5 56v5c1.655.01 4-1.12 4-2.5s-1.846-2.5-4-2.5z" overflow="visible" opacity=".6" fill="url(#L)"/>
            </g>
            <rect ry="2" rx="2" y="11.5" x="2.5" height="47" width="59" fill="url(#M)"/>
            <rect width="57" height="45" rx="1" ry="1" x="3.5" y="12.5" opacity=".5" fill="none" stroke="url(#N)" stroke-linecap="round" stroke-linejoin="round"/>
            <rect width="59" height="47" rx="2" ry="2" x="2.5" y="11.5" style="isolation:auto;mix-blend-mode:normal;marker:none" color="#000" overflow="visible" opacity=".5" fill="none" stroke="#a62100" stroke-linecap="round" stroke-linejoin="round"/>
        </g>
        <g color="#000" font-weight="400" font-family="sans-serif" white-space="normal">
            <path style="line-height:normal;font-variant-ligatures:normal;font-variant-position:normal;font-variant-caps:normal;font-variant-numeric:normal;font-variant-alternates:normal;font-feature-settings:normal;text-indent:0;text-align:start;text-decoration-line:none;text-decoration-style:solid;text-decoration-color:#000;text-transform:none;text-orientation:mixed;shape-padding:0;isolation:auto;mix-blend-mode:normal;marker:none" d="M168 19c-.254 0-.42.11-.553.215a2.197 2.197 0 0 0-.354.368 8.453 8.453 0 0 0-.698 1.077c-.49.864-1.038 1.995-1.578 3.142-.54 1.148-1.072 2.311-1.517 3.219-.223.454-.424.845-.588 1.129-.164.284-.348.48-.288.433.06-.046-.165.073-.47.148-.306.076-.72.156-1.2.238-.957.164-2.174.337-3.38.523-1.206.185-2.4.382-3.337.606-.468.112-.87.227-1.198.367-.329.139-.657.247-.798.706-.142.458.06.726.245 1.037.186.312.444.653.76 1.032.63.757 1.485 1.653 2.356 2.547.872.895 1.762 1.786 2.445 2.51.342.363.634.685.84.936.207.252.325.485.307.427-.018-.058.016.21-.01.542-.027.332-.081.772-.155 1.277-.148 1.01-.368 2.28-.573 3.542-.205 1.262-.395 2.514-.482 3.514-.043.5-.061.936-.037 1.3.012.183.032.347.079.509.047.161.116.34.313.491.197.15.397.168.567.165.17-.003.33-.034.502-.08.344-.09.734-.244 1.175-.443.882-.397 1.958-.974 3.037-1.569 1.08-.595 2.16-1.208 3.027-1.666.433-.23.814-.42 1.104-.548.29-.128.544-.171.459-.171-.086 0 .17.043.46.17.29.129.672.32 1.105.549.867.458 1.947 1.071 3.026 1.666 1.08.595 2.155 1.172 3.037 1.569.441.199.832.353 1.176.444.172.045.333.076.502.079.17.003.37-.014.567-.165.197-.15.265-.33.313-.491.047-.162.067-.326.079-.509a8.84 8.84 0 0 0-.038-1.3c-.086-1-.276-2.252-.481-3.514-.205-1.262-.426-2.533-.573-3.542-.074-.505-.13-.945-.157-1.277-.026-.332.01-.6-.008-.542-.018.058.1-.175.306-.427.207-.251.499-.573.84-.935.684-.725 1.571-1.616 2.443-2.51.872-.895 1.727-1.791 2.357-2.548.316-.379.576-.72.761-1.032.186-.311.386-.579.244-1.037-.142-.459-.468-.567-.796-.706a7.81 7.81 0 0 0-1.2-.367c-.937-.224-2.13-.421-3.335-.606-1.207-.186-2.424-.36-3.381-.523a18.119 18.119 0 0 1-1.199-.238c-.305-.075-.533-.194-.473-.148.06.046-.121-.149-.285-.433a20.325 20.325 0 0 1-.588-1.13c-.445-.907-.977-2.07-1.517-3.218-.54-1.147-1.088-2.278-1.578-3.142a8.453 8.453 0 0 0-.698-1.077 2.208 2.208 0 0 0-.357-.368c-.133-.105-.299-.215-.552-.215z" overflow="visible" opacity=".15" fill="#a62100" stroke="#a62100" stroke-width="2" stroke-linejoin="round"/>
            <path d="M168 19c-.253 0-.42.11-.552.215a2.197 2.197 0 0 0-.354.368 8.454 8.454 0 0 0-.698 1.077c-.49.864-1.037 1.995-1.577 3.142-.54 1.148-1.072 2.311-1.517 3.219-.223.454-.424.845-.588 1.129-.163.284-.347.48-.287.433.06-.046-.165.073-.47.148a18.1 18.1 0 0 1-1.199.238c-.957.164-2.173.337-3.38.523-1.205.185-2.399.382-3.334.606-.468.112-.87.227-1.198.367-.329.139-.657.247-.798.706-.142.458.06.726.245 1.037.186.312.444.653.759 1.032.63.757 1.485 1.653 2.356 2.547.872.895 1.76 1.786 2.444 2.51.342.363.633.685.84.936.206.252.324.485.306.427-.018-.058.016.21-.01.542-.027.332-.081.772-.155 1.277-.148 1.01-.368 2.28-.573 3.542-.205 1.262-.394 2.514-.481 3.514-.043.5-.062.936-.038 1.3.012.183.032.347.08.509.047.161.115.34.312.491.197.15.397.168.567.165.17-.003.33-.034.502-.08a7.82 7.82 0 0 0 1.175-.443c.881-.397 1.957-.974 3.035-1.569 1.08-.595 2.159-1.208 3.025-1.666.434-.23.815-.42 1.105-.548.29-.128.543-.171.458-.171-.086 0 .17.043.46.17.29.129.671.32 1.104.549.867.458 1.947 1.071 3.025 1.666 1.08.595 2.154 1.172 3.036 1.569.44.199.83.353 1.175.444.172.045.333.076.502.079.17.003.37-.014.567-.165.197-.15.265-.33.312-.491.047-.162.067-.326.08-.509.023-.364.005-.8-.038-1.3-.087-1-.277-2.252-.481-3.514-.205-1.262-.426-2.533-.573-3.542-.074-.505-.13-.945-.157-1.277-.026-.332.01-.6-.008-.542-.018.058.1-.175.306-.427.207-.251.498-.573.84-.935.683-.725 1.57-1.616 2.442-2.51.871-.895 1.725-1.791 2.356-2.548.315-.379.575-.72.76-1.032.186-.311.386-.579.244-1.037-.142-.459-.467-.567-.796-.706a7.805 7.805 0 0 0-1.2-.367c-.936-.224-2.128-.421-3.333-.606-1.206-.186-2.422-.36-3.38-.523a18.104 18.104 0 0 1-1.197-.238c-.306-.075-.533-.194-.473-.148.06.046-.122-.149-.286-.433a20.329 20.329 0 0 1-.587-1.13c-.445-.907-.977-2.07-1.517-3.218-.54-1.147-1.087-2.278-1.577-3.142a8.454 8.454 0 0 0-.698-1.077 2.207 2.207 0 0 0-.356-.368c-.133-.105-.299-.215-.552-.215z" style="line-height:normal;font-variant-ligatures:normal;font-variant-position:normal;font-variant-caps:normal;font-variant-numeric:normal;font-variant-alternates:normal;font-feature-settings:normal;text-indent:0;text-align:start;text-decoration-line:none;text-decoration-style:solid;text-decoration-color:#000;text-transform:none;text-orientation:mixed;shape-padding:0;isolation:auto;mix-blend-mode:normal;marker:none" overflow="visible" opacity=".3" fill="#a62100"/>
            <path style="line-height:normal;font-variant-ligatures:normal;font-variant-position:normal;font-variant-caps:normal;font-variant-numeric:normal;font-variant-alternates:normal;font-feature-settings:normal;text-indent:0;text-align:start;text-decoration-line:none;text-decoration-style:solid;text-decoration-color:#000;text-transform:none;text-orientation:mixed;shape-padding:0;isolation:auto;mix-blend-mode:normal;marker:none" d="M32 15c-.253 0-.42.11-.552.215a2.197 2.197 0 0 0-.354.369 8.454 8.454 0 0 0-.698 1.077c-.49.863-1.037 1.994-1.577 3.141-.54 1.148-1.072 2.311-1.517 3.219-.223.454-.424.845-.588 1.13-.163.283-.347.478-.287.432.06-.045-.165.073-.47.148a18.1 18.1 0 0 1-1.199.238c-.957.164-2.173.338-3.38.523-1.205.185-2.399.383-3.335.606-.467.112-.87.228-1.197.367-.329.139-.657.247-.798.706-.142.459.06.726.245 1.037.186.312.444.653.759 1.032.63.757 1.485 1.653 2.356 2.548.872.894 1.76 1.785 2.444 2.51.341.362.633.684.84.935.206.252.324.485.306.427-.018-.058.016.21-.01.542-.027.332-.081.772-.155 1.277-.148 1.01-.368 2.28-.573 3.542-.205 1.262-.394 2.514-.481 3.514-.043.5-.062.936-.038 1.3.012.183.032.347.08.509.047.161.115.34.312.491.197.15.397.168.567.165.17-.003.33-.034.502-.08a7.82 7.82 0 0 0 1.175-.443c.881-.397 1.956-.974 3.035-1.569 1.08-.595 2.159-1.208 3.025-1.666.434-.23.815-.42 1.104-.548.29-.128.544-.171.459-.171-.086 0 .17.043.46.17.29.129.671.32 1.104.549.867.458 1.947 1.071 3.025 1.666 1.08.595 2.154 1.172 3.036 1.569.44.199.83.353 1.175.444.172.045.333.076.502.079.17.003.37-.014.567-.165.197-.15.265-.33.312-.491.047-.162.067-.326.08-.509.023-.364.005-.8-.038-1.3-.087-1-.277-2.252-.481-3.514-.205-1.262-.426-2.532-.573-3.542-.074-.505-.13-.945-.157-1.277-.026-.332.01-.6-.008-.542-.018.058.1-.175.306-.427.207-.251.498-.573.84-.935.683-.725 1.57-1.616 2.442-2.51.871-.895 1.725-1.791 2.356-2.548.315-.379.575-.72.76-1.032.186-.311.386-.578.244-1.037-.142-.459-.468-.567-.796-.706a7.805 7.805 0 0 0-1.2-.367c-.936-.223-2.128-.421-3.333-.606-1.206-.185-2.422-.36-3.38-.523a18.104 18.104 0 0 1-1.197-.238c-.306-.075-.533-.193-.473-.148.06.046-.122-.149-.286-.433a20.329 20.329 0 0 1-.587-1.13c-.445-.907-.977-2.07-1.517-3.218-.54-1.147-1.087-2.278-1.577-3.141a8.454 8.454 0 0 0-.698-1.078 2.207 2.207 0 0 0-.356-.368C32.419 15.11 32.253 15 32 15z" overflow="visible" fill="url(#O)" transform="translate(136 3)"/>
        </g>
    </g>
</svg>
